<?xml version="1.0" encoding="UTF-8"?>
<svg id="Layer_2" data-name="Layer 2" xmlns="http://www.w3.org/2000/svg" viewBox="0 0 445.01 334.9">
  <defs>
    <style>
      .cls-1 {
        fill: #4788c8;
      }
    </style>
  </defs>
  <g id="Layer_1-2" data-name="Layer 1">
    <g>
      <path class="cls-1" d="m390.01,224.49c-11.55,2.37-120.52,8.25-176.2,11.16l2.41,53.91c.71,15.58-15.08,24.52-26.72,15.13l-64.03-51.69-72.76,27.09c-13.21,4.93-26.43-9.23-22.39-23.95l22.33-85.81L3.79,105.98c-8.86-12.53-1.25-30.23,12.88-29.93l77.69-4.68L137.08,7.86c7.72-12.65,25.65-9.44,30.34,5.47l16.37,51.58c5.83,2.99,185.82-9.36,195.74-8.92,33.25,1.45,62.35,35.27,65.24,81.36,2.89,46.05-22.14,80.41-54.77,87.15Zm-239.99-111.15c2.86-.19,5.25-1.29,7.18-3.32,1.93-2.02,3.19-5.02,3.78-8.97.34-2.28.37-4.36.11-6.24-.27-1.88-.69-3.4-1.28-4.55l-72.02,4.7c-2.86.19-5.25,1.26-7.17,3.23-1.92,1.97-3.19,4.99-3.79,9.06-.34,2.28-.35,4.36-.03,6.24.32,1.88.72,3.4,1.2,4.55l25.87-1.69-12.47,84.08c-.75,5.04-.22,8.45,1.58,10.23,1.8,1.78,5.28,2.51,10.45,2.17,2.41-.16,4.74-.46,6.99-.9,2.24-.44,3.99-.88,5.26-1.32l14.23-95.95,20.11-1.31Zm28.82,92.59l9.42-63.49c1.92-1.19,3.98-2.25,6.18-3.16,2.2-.91,4.57-1.46,7.1-1.62,3.84-.25,6.83.68,8.97,2.8,2.13,2.12,2.8,5.87,2,11.27l-6.11,41.19c-.75,5.04-.15,8.35,1.79,9.95,1.94,1.59,5.38,2.23,10.33,1.91,2.42-.16,4.64-.45,6.66-.88,2.02-.43,3.61-.86,4.76-1.29l8.03-54.14c1.72-11.63.02-20.16-5.1-25.58-5.13-5.42-12.96-7.79-23.51-7.11-3.41.22-6.62.82-9.65,1.79-3.03.97-5.78,2.13-8.27,3.48l3.07-20.68c.75-5.04.18-8.38-1.69-10.04-1.88-1.66-5.29-2.33-10.23-2-2.42.16-4.64.48-6.67.97-2.03.49-3.68.95-4.94,1.39l-15.66,105.58c-.75,5.04-.15,8.35,1.79,9.95,1.94,1.59,5.38,2.23,10.33,1.91,2.42-.16,4.64-.45,6.66-.88,2.02-.43,3.61-.86,4.76-1.29Zm133.76-45.83c3.49-.82,6.32-2.25,8.47-4.29,2.15-2.04,3.51-4.98,4.08-8.82.82-5.51.64-10.55-.53-15.11-1.18-4.55-3.19-8.4-6.04-11.54-2.85-3.14-6.48-5.48-10.87-7.04-4.4-1.55-9.39-2.15-15-1.78-5.17.34-10.32,1.54-15.47,3.59-5.15,2.06-9.89,5.07-14.24,9.03-4.34,3.97-8.06,8.84-11.14,14.62-3.09,5.79-5.2,12.51-6.34,20.19-1.17,7.91-1.07,14.74.31,20.46,1.38,5.73,3.76,10.41,7.14,14.05,3.38,3.64,7.66,6.27,12.87,7.89,5.2,1.62,11.04,2.22,17.52,1.8,4.39-.29,8.48-.88,12.26-1.78,3.78-.9,7.11-2.13,10.01-3.68,2.9-1.55,5.26-3.4,7.1-5.54,1.84-2.14,2.97-4.59,3.37-7.35.34-2.28.1-4.34-.71-6.19-.82-1.85-1.96-3.32-3.43-4.41-2.78,1.85-6.3,3.59-10.57,5.23-4.27,1.64-8.71,2.62-13.33,2.92-5.05.33-9.35-.43-12.88-2.28-3.54-1.85-5.7-5.24-6.49-10.17l43.89-9.81Zm-12.97-24.8c1.9,2.61,2.72,5.46,2.48,8.57l-32.3,7.63c1.44-6.03,3.96-10.74,7.56-14.12,3.6-3.38,7.76-5.23,12.49-5.54,4.61-.3,7.87.85,9.77,3.46Zm116.72-4.7c-1.2-5.5-3.34-10.14-6.42-13.92-3.09-3.78-7.05-6.58-11.89-8.4-4.84-1.82-10.4-2.53-16.66-2.12-6.26.41-12.17,1.86-17.7,4.36-5.54,2.5-10.44,5.85-14.71,10.04-4.27,4.2-7.84,9.21-10.72,15.04-2.88,5.83-4.83,12.22-5.86,19.18-1.07,7.2-1.03,13.58.1,19.14,1.13,5.57,3.24,10.21,6.34,13.93,3.09,3.72,7.09,6.46,12,8.21,4.91,1.76,10.55,2.43,16.92,2.01,6.37-.42,12.3-1.87,17.78-4.37,5.48-2.5,10.36-5.84,14.63-10.04,4.27-4.2,7.81-9.21,10.64-15.03,2.82-5.82,4.76-12.27,5.81-19.35,1.03-6.95.95-13.18-.25-18.69Zm-27.09,2.75c2.22,4.07,2.77,9.94,1.63,17.62-1.17,7.91-3.47,14.06-6.9,18.44-3.42,4.38-7.77,6.74-13.05,7.09s-9.01-1.46-11.19-5.42c-2.19-3.95-2.69-9.95-1.49-17.98s3.47-13.88,6.95-18.27c3.48-4.38,7.8-6.74,12.96-7.08,5.16-.34,8.86,1.53,11.08,5.6Z"/>
      <g>
        <g>
          <path class="cls-1" d="m260.55,276.75c0,.76-.2,1.4-.59,1.91-.38.51-.98.99-1.78,1.44-.95.56-2.26,1.06-3.93,1.49-1.67.42-3.38.69-5.12.79-2.58.16-4.95-.04-7.1-.58-2.16-.54-4.01-1.47-5.56-2.79-1.55-1.32-2.75-3.04-3.61-5.17-.86-2.12-1.27-4.67-1.25-7.64.02-2.9.49-5.47,1.42-7.69.92-2.23,2.16-4.11,3.72-5.63,1.55-1.52,3.37-2.71,5.47-3.56,2.09-.85,4.32-1.34,6.68-1.48,1.56-.09,3-.04,4.3.15,1.3.19,2.43.48,3.37.86.94.38,1.66.83,2.17,1.36.5.53.75,1.11.75,1.73s-.17,1.16-.5,1.63c-.33.47-.73.85-1.2,1.13-.98-.56-2.14-1.07-3.47-1.54-1.34-.46-3.02-.64-5.06-.51-1.63.1-3.16.46-4.58,1.09-1.42.63-2.65,1.5-3.7,2.62-1.04,1.11-1.86,2.46-2.45,4.06-.59,1.59-.9,3.4-.91,5.43-.02,2.14.27,3.98.86,5.52.59,1.53,1.39,2.78,2.42,3.74,1.03.95,2.26,1.63,3.69,2.03,1.43.4,2.98.56,4.65.46,1.16-.07,2.25-.24,3.27-.5,1.02-.26,1.8-.55,2.35-.87l.06-8.7-7.52.45c-.18-.21-.33-.51-.46-.92-.13-.41-.18-.83-.18-1.27,0-.84.2-1.46.59-1.88.39-.42.9-.66,1.56-.7l9.15-.55c.76-.05,1.39.15,1.87.57.49.42.73,1.05.72,1.88l-.09,11.63Z"/>
          <path class="cls-1" d="m272.11,280.14c-.25.12-.61.25-1.06.36-.45.12-.96.19-1.5.22-1.05.06-1.83-.08-2.34-.46-.51-.37-.76-1.02-.75-1.96l.13-17.83c0-.91.19-1.65.56-2.23.37-.58.95-1.15,1.76-1.71,1.06-.72,2.4-1.34,4.04-1.87,1.64-.53,3.44-.86,5.4-.98,3.19-.19,4.79.62,4.77,2.43,0,.43-.08.85-.23,1.24-.15.39-.32.74-.5,1.04-.36-.05-.82-.1-1.36-.14-.54-.04-1.13-.04-1.74,0-1.45.09-2.78.32-3.98.69-1.2.38-2.22.83-3.06,1.35l-.15,19.84Z"/>
          <path class="cls-1" d="m295.57,252.65c3.38-.2,6.06.37,8.05,1.73,1.99,1.35,2.97,3.6,2.94,6.75l-.09,12.66c0,.84-.2,1.49-.58,1.97-.38.48-.91.93-1.56,1.37-.95.6-2.17,1.15-3.66,1.64-1.49.49-3.22.79-5.18.91-3.52.21-6.27-.31-8.24-1.57-1.97-1.26-2.94-3.23-2.92-5.91.02-2.39.8-4.26,2.35-5.62,1.55-1.36,3.78-2.27,6.69-2.74l7.58-1.22v-1.19c.02-1.59-.49-2.72-1.52-3.39s-2.47-.94-4.32-.83c-1.45.09-2.85.37-4.2.85-1.35.48-2.55,1.01-3.61,1.57-.36-.27-.67-.6-.92-1s-.38-.86-.37-1.37c0-.62.16-1.13.48-1.55.31-.41.79-.79,1.45-1.12,1.02-.57,2.18-1.01,3.49-1.33,1.31-.31,2.69-.51,4.14-.6Zm-.06,22.56c1.27-.08,2.38-.27,3.32-.58.95-.31,1.62-.62,2.02-.94l.05-6.9-5.94.96c-1.67.28-2.93.72-3.77,1.33-.84.61-1.26,1.5-1.27,2.66,0,1.2.44,2.11,1.34,2.72.9.62,2.31.87,4.24.75Z"/>
          <path class="cls-1" d="m323.91,277.91c-1.16.07-2.25.02-3.27-.16-1.01-.17-1.88-.42-2.61-.74l-.07,10.23c-.26.13-.61.24-1.06.36s-.96.19-1.5.22c-1.05.06-1.83-.09-2.34-.46-.51-.37-.75-1.04-.75-2.02l.21-28.11c0-.8.16-1.45.45-1.96.29-.5.84-1.02,1.64-1.54,1.02-.64,2.27-1.23,3.74-1.77,1.47-.54,3.14-.87,4.99-.98,1.89-.11,3.65.05,5.28.48,1.63.43,3.04,1.15,4.23,2.16,1.19,1.02,2.12,2.35,2.8,3.99.68,1.64,1.01,3.63.99,5.95-.02,2.28-.35,4.28-1,6-.65,1.72-1.53,3.19-2.65,4.4-1.11,1.21-2.45,2.14-3.99,2.79s-3.25,1.03-5.1,1.14Zm-.84-4.57c2.36-.14,4.24-.97,5.63-2.48,1.39-1.51,2.1-3.83,2.12-6.94.01-1.59-.18-2.94-.57-4.05-.39-1.1-.92-1.98-1.59-2.65-.67-.67-1.46-1.12-2.38-1.38-.92-.25-1.91-.35-2.96-.29-1.16.07-2.15.27-2.97.59-.82.32-1.54.68-2.16,1.08l-.11,14.95c.61.4,1.34.71,2.17.93.83.22,1.78.3,2.83.24Z"/>
          <path class="cls-1" d="m357.21,254.92c-1.07-.86-2.47-1.24-4.21-1.14-1.16.07-2.23.32-3.19.76-.96.44-1.81.95-2.54,1.54l-.14,19.57c-.25.12-.61.25-1.06.37-.45.12-.96.19-1.5.22-1.05.06-1.83-.08-2.33-.46-.51-.37-.76-1.02-.75-1.96l.24-33.01c.25-.09.62-.2,1.09-.34.47-.14.98-.22,1.53-.25,1.05-.06,1.82.09,2.31.46.48.37.73,1.03.72,1.97l-.06,8.59c.84-.49,1.81-.93,2.92-1.34,1.11-.41,2.35-.66,3.73-.74,3.16-.19,5.71.49,7.63,2.04,1.93,1.56,2.89,4.03,2.86,7.44l-.12,15.98c-.25.12-.62.25-1.09.37-.47.12-.96.19-1.47.22-1.09.06-1.88-.09-2.36-.46-.49-.37-.73-1.02-.72-1.97l.1-13.59c.01-2-.51-3.42-1.57-4.28Z"/>
          <path class="cls-1" d="m370.35,241.12c0-.95.34-1.75,1-2.43.66-.67,1.49-1.04,2.51-1.1s1.83.21,2.45.8c.61.6.91,1.37.91,2.31,0,.94-.32,1.75-.94,2.42-.62.67-1.44,1.03-2.46,1.1-1.02.06-1.85-.2-2.5-.8-.65-.6-.97-1.36-.96-2.3Zm6.07,32.79c-.25.12-.61.25-1.06.36-.45.12-.97.19-1.55.23-1.05.06-1.83-.09-2.33-.46-.51-.37-.76-1.02-.75-1.96l.17-23c.29-.09.66-.2,1.12-.34.45-.14.97-.22,1.55-.25,1.05-.06,1.83.09,2.31.46.49.37.73,1.04.72,2.02l-.17,22.94Z"/>
          <path class="cls-1" d="m395.54,251.3c-1.16.07-2.23.33-3.22.76-.98.44-1.83,1.06-2.55,1.87-.71.8-1.28,1.77-1.71,2.9-.43,1.13-.64,2.42-.65,3.87-.02,2.86.7,5,2.18,6.41,1.48,1.42,3.42,2.05,5.81,1.91,1.38-.08,2.56-.33,3.55-.76.98-.42,1.84-.91,2.57-1.46.47.26.85.59,1.14.96.29.38.43.87.42,1.45,0,1.12-.75,2.11-2.22,2.96-1.47.85-3.41,1.34-5.81,1.49-2,.12-3.82-.04-5.47-.49-1.65-.45-3.07-1.2-4.26-2.25-1.19-1.06-2.11-2.4-2.78-4.05-.66-1.65-.98-3.59-.96-5.84.02-2.25.39-4.25,1.11-5.99.72-1.75,1.69-3.22,2.92-4.41,1.23-1.2,2.66-2.12,4.29-2.79s3.37-1.04,5.18-1.15c1.2-.07,2.28-.03,3.24.14.96.16,1.78.41,2.47.75.69.34,1.22.74,1.6,1.21.38.47.56.97.56,1.52,0,.51-.15.98-.42,1.41-.28.44-.61.77-1.02,1.02-.76-.43-1.6-.79-2.52-1.1-.92-.31-2.08-.42-3.46-.34Z"/>
        </g>
        <g>
          <path class="cls-1" d="m271.24,311.81c-.02,2.94-.46,5.53-1.31,7.77-.85,2.24-2.06,4.14-3.61,5.68-1.55,1.54-3.42,2.73-5.6,3.57-2.19.84-4.6,1.33-7.26,1.49-1.16.07-2.52.09-4.08.08-1.56-.01-3.01-.2-4.35-.55-1.67-.44-2.49-1.37-2.48-2.79l.2-27.24c0-.62.18-1.1.53-1.47.35-.36.83-.65,1.45-.88,1.28-.47,2.66-.82,4.15-1.04,1.49-.21,2.94-.37,4.35-.45,2.69-.16,5.15.04,7.37.6,2.23.55,4.14,1.49,5.72,2.81,1.59,1.32,2.81,3.01,3.67,5.08.86,2.07,1.28,4.52,1.25,7.35Zm-5.99.41c.02-2.14-.28-3.96-.88-5.46-.61-1.5-1.45-2.71-2.53-3.62-1.08-.91-2.35-1.56-3.8-1.95-1.45-.39-3.01-.53-4.68-.43-1.92.11-3.52.34-4.79.67l-.18,23.97c.72.14,1.53.21,2.42.21.89,0,1.79-.03,2.69-.08,3.78-.23,6.67-1.46,8.69-3.7,2.01-2.24,3.03-5.44,3.06-9.61Z"/>
          <path class="cls-1" d="m280.72,318.2c.49,2.04,1.47,3.51,2.94,4.42,1.46.91,3.34,1.3,5.63,1.16,1.53-.09,2.92-.41,4.2-.96,1.28-.55,2.3-1.12,3.06-1.7,1.01.52,1.52,1.3,1.51,2.36,0,.62-.25,1.2-.72,1.75-.48.56-1.12,1.05-1.94,1.48-.82.43-1.79.79-2.89,1.07-1.11.29-2.3.46-3.57.54-2.11.13-4.02-.05-5.74-.52-1.72-.48-3.2-1.26-4.42-2.35-1.22-1.09-2.17-2.46-2.83-4.12-.66-1.66-.98-3.62-.97-5.86.02-2.18.36-4.1,1.03-5.8.66-1.69,1.56-3.12,2.7-4.29,1.13-1.17,2.47-2.09,4-2.76,1.53-.67,3.17-1.06,4.91-1.17,1.74-.1,3.33.08,4.76.56,1.43.48,2.66,1.18,3.69,2.12,1.03.94,1.82,2.07,2.37,3.42.55,1.34.82,2.83.81,4.46,0,.91-.23,1.58-.67,2.02-.44.44-1.08.76-1.91.96l-15.92,3.23Zm6.84-12.36c-2,.12-3.66.89-5,2.31-1.34,1.42-2.05,3.38-2.14,5.89l13.41-2.71c-.13-1.62-.72-2.97-1.77-4.05-1.04-1.08-2.54-1.56-4.51-1.45Z"/>
          <path class="cls-1" d="m322.86,318.51c-.02,2.43-.94,4.38-2.77,5.87-1.82,1.48-4.46,2.33-7.91,2.54-1.42.08-2.73.06-3.92-.09-1.2-.14-2.22-.39-3.07-.74-.85-.34-1.51-.78-1.98-1.29-.47-.52-.7-1.1-.7-1.75,0-.54.14-1.06.42-1.55.28-.48.65-.89,1.13-1.21,1.01.59,2.17,1.12,3.47,1.59,1.3.46,2.83.65,4.57.54,1.63-.1,2.89-.45,3.76-1.07.88-.61,1.32-1.44,1.33-2.49,0-.91-.29-1.62-.88-2.12-.6-.51-1.47-.87-2.63-1.09l-3.7-.75c-2.46-.51-4.28-1.29-5.43-2.34-1.15-1.06-1.72-2.56-1.71-4.52,0-1.05.23-2.05.68-3,.44-.95,1.09-1.79,1.95-2.51.85-.72,1.92-1.31,3.2-1.77s2.73-.74,4.36-.83c1.31-.08,2.49-.05,3.56.09,1.07.14,1.99.36,2.77.65.78.29,1.38.69,1.81,1.17.43.48.65,1.01.64,1.59,0,.58-.14,1.09-.39,1.52-.26.43-.59.79-.99,1.06-.65-.36-1.62-.73-2.9-1.13-1.29-.4-2.67-.55-4.16-.46-1.53.09-2.73.42-3.6,1s-1.32,1.34-1.32,2.28c0,.73.23,1.31.72,1.75.49.45,1.33.78,2.52.99l3.15.63c2.75.56,4.78,1.42,6.08,2.57,1.3,1.15,1.94,2.78,1.92,4.88Z"/>
          <path class="cls-1" d="m327.3,292c0-.95.34-1.75,1-2.42.66-.67,1.49-1.04,2.51-1.1,1.02-.06,1.83.2,2.44.8.61.6.91,1.37.91,2.31,0,.94-.32,1.75-.94,2.42-.62.67-1.44,1.03-2.45,1.1-1.02.06-1.85-.2-2.5-.8-.65-.6-.97-1.37-.96-2.31Zm6.07,32.79c-.25.12-.61.24-1.06.36-.45.12-.97.19-1.55.23-1.05.06-1.83-.08-2.34-.46-.51-.37-.76-1.02-.75-1.96l.17-23c.29-.09.66-.2,1.12-.34.45-.14.97-.22,1.55-.25,1.05-.06,1.83.09,2.31.46.49.37.73,1.05.72,2.03l-.17,22.94Z"/>
          <path class="cls-1" d="m356.49,321.12c-.69.48-1.54.89-2.54,1.24-1,.35-2.19.57-3.57.65-1.6.1-3.11-.04-4.55-.41-1.43-.37-2.68-1.01-3.77-1.95-1.08-.93-1.94-2.18-2.56-3.73-.63-1.56-.93-3.49-.91-5.81.02-2.1.35-3.96,1-5.57.64-1.62,1.55-2.99,2.7-4.13,1.15-1.14,2.52-2.03,4.1-2.67,1.59-.64,3.34-1.01,5.26-1.13,1.78-.11,3.42.02,4.92.39,1.5.36,2.72.82,3.66,1.38.61.36,1.09.78,1.43,1.28.34.48.51,1.09.5,1.82l-.16,21.42c-.01,1.81-.34,3.39-.99,4.73-.64,1.34-1.53,2.45-2.64,3.34-1.11.88-2.43,1.56-3.96,2.03s-3.16.76-4.91.87c-1.85.11-3.45.02-4.79-.26-1.34-.28-2.32-.59-2.93-.91-1.12-.62-1.68-1.49-1.67-2.62,0-.62.14-1.14.39-1.57.26-.44.59-.79.99-1.07.83.53,1.93.99,3.31,1.38,1.37.39,2.84.54,4.41.44,2.29-.14,4.06-.7,5.32-1.7,1.26-1,1.9-2.53,1.91-4.6l.02-2.83Zm-5.26-2.62c1.23-.07,2.27-.32,3.11-.73.84-.41,1.55-.89,2.14-1.44l.1-13.15c-.54-.3-1.21-.55-2.01-.78-.8-.23-1.74-.31-2.83-.24-2.22.13-4,.91-5.35,2.33-1.35,1.42-2.04,3.49-2.06,6.21-.01,1.48.16,2.74.52,3.77.36,1.03.84,1.85,1.45,2.47.61.62,1.35,1.04,2.2,1.29.85.23,1.77.33,2.75.27Z"/>
          <path class="cls-1" d="m383.99,301.49c-.99-.77-2.34-1.11-4.05-1.01-1.27.08-2.41.31-3.41.7-1,.38-1.87.8-2.6,1.24l-.15,19.95c-.25.12-.61.24-1.06.36-.45.12-.95.19-1.5.22-1.05.06-1.83-.09-2.34-.46-.51-.37-.76-1.02-.75-1.96l.13-17.94c0-.83.17-1.51.5-2.04.33-.53.88-1.07,1.65-1.62,1.02-.68,2.35-1.32,3.99-1.92,1.64-.6,3.49-.97,5.56-1.1,3.52-.21,6.28.42,8.26,1.87,1.99,1.46,2.97,3.78,2.94,6.97l-.12,16.58c-.25.12-.62.25-1.09.37-.47.12-.98.19-1.53.22-1.05.06-1.83-.08-2.34-.46-.51-.37-.75-1.02-.75-1.96l.1-14.19c.01-1.78-.48-3.05-1.47-3.83Z"/>
          <path class="cls-1" d="m401.7,310.97c.49,2.04,1.47,3.51,2.94,4.42,1.46.91,3.34,1.29,5.63,1.16,1.53-.09,2.92-.41,4.2-.96,1.28-.55,2.3-1.12,3.06-1.7,1.01.52,1.52,1.3,1.51,2.36,0,.62-.25,1.2-.72,1.75-.48.56-1.12,1.04-1.94,1.48-.82.43-1.79.79-2.89,1.07-1.11.28-2.3.46-3.57.54-2.11.12-4.02-.05-5.74-.53-1.72-.47-3.2-1.26-4.42-2.35-1.22-1.09-2.17-2.46-2.83-4.12-.66-1.66-.98-3.62-.97-5.86.02-2.18.36-4.11,1.03-5.8.66-1.69,1.56-3.12,2.7-4.29,1.13-1.17,2.47-2.1,4-2.76,1.53-.67,3.17-1.06,4.91-1.16s3.33.08,4.76.56c1.43.48,2.66,1.18,3.69,2.12s1.82,2.07,2.37,3.42c.55,1.35.82,2.83.81,4.46,0,.91-.23,1.58-.67,2.02-.44.45-1.08.76-1.91.96l-15.92,3.23Zm6.84-12.36c-2,.12-3.66.89-5,2.31-1.34,1.42-2.05,3.38-2.14,5.89l13.41-2.71c-.13-1.62-.72-2.97-1.77-4.05-1.04-1.08-2.54-1.56-4.51-1.44Z"/>
          <path class="cls-1" d="m430.22,319c-.25.12-.61.25-1.06.37-.45.12-.96.19-1.5.22-1.05.06-1.83-.09-2.33-.46-.51-.37-.76-1.02-.75-1.96l.13-17.83c0-.91.19-1.65.56-2.23s.95-1.16,1.75-1.71c1.05-.72,2.4-1.34,4.04-1.87,1.64-.53,3.44-.86,5.4-.97,3.2-.19,4.79.62,4.77,2.43,0,.43-.08.85-.23,1.24-.15.39-.32.73-.5,1.03-.36-.05-.81-.09-1.36-.14-.54-.04-1.13-.04-1.74,0-1.45.09-2.78.32-3.98.69-1.2.38-2.22.84-3.06,1.35l-.15,19.84Z"/>
        </g>
      </g>
    </g>
  </g>
</svg>